# xmcd
#
# Track frame offsets: 
#        150
#        12652
#        19220
#        38868
#        84600
#        131533
#        139609
#        164883
#        180918
#        235058
#        272314
#        287750
#        313737
#
# Disc length: 4752 seconds
#
# Revision: 0
# Processed by: cddbd v1.5.2PL0 Copyright (c) Steve Scherf et al.
# Submitted via: ExactAudioCopy v1.3
#
DISCID=b0128e0d
DTITLE=Greta Van Fleet - Champagne and Caviar
DYEAR=2019
DGENRE=Blues Rock
TTITLE0=Opening (My Whole World Ended)
TTITLE1=Intro
TTITLE2=Highway Tune
TTITLE3=Edge Of Darkness
TTITLE4=Flower Power
TTITLE5=The Music Is You (John Denver Cover)
TTITLE6=You're The One
TTITLE7=Evil (Howlin’ Wolf Cover)
TTITLE8=Watching Over
TTITLE9=When The Curtain Falls
TTITLE10=The Cold Wind
TTITLE11=Black Smoke Rising
TTITLE12=Safari Song~Outro
EXTD=
EXTT0=
EXTT1=
EXTT2=
EXTT3=
EXTT4=
EXTT5=
EXTT6=
EXTT7=
EXTT8=
EXTT9=
EXTT10=
EXTT11=
EXTT12=
PLAYORDER=
